<?xml version="1.0" encoding="iso-8859-1"?>
<!-- Generator: Adobe Illustrator 19.0.0, SVG Export Plug-In . SVG Version: 6.00 Build 0)  -->
<svg version="1.1" id="Layer_1" fill="#fff" xmlns="http://www.w3.org/2000/svg" xmlns:xlink="http://www.w3.org/1999/xlink" x="0px" y="0px"
	 viewBox="0 0 512 512" style="enable-background:new 0 0 512 512;" xml:space="preserve">
<g>
	<g>
		<g>
			<path d="M493.423,231.501C483.055,130.884,408.38,45.739,309.393,23.125c-4.599-1.058-9.165,1.826-10.214,6.426
				c-1.05,4.591,1.818,9.173,6.417,10.223C359.569,52.096,405.734,84.489,436.659,128h-31.147c-4.719,0-8.533,3.823-8.533,8.533
				s3.814,8.533,8.533,8.533h42.095c15.394,26.402,25.429,56.055,28.766,87.381c-6.537,2.799-11.597,8.277-13.995,15.019H409.6
				c-4.719,0-8.533,3.823-8.533,8.533s3.814,8.533,8.533,8.533h52.779c3.533,9.916,12.911,17.067,24.021,17.067
				c14.114,0,25.6-11.486,25.6-25.6C512,244.335,504.115,234.581,493.423,231.501z M486.4,264.533c-4.71,0-8.533-3.831-8.533-8.533
				c0-4.608,3.686-8.32,8.252-8.474c0.077-0.009,0.137-0.009,0.213-0.009c0.051-0.009,0.085-0.034,0.136-0.043
				c4.676,0.043,8.465,3.84,8.465,8.525C494.933,260.702,491.11,264.533,486.4,264.533z"/>
			<path d="M28.757,217.225c0.589,0.119,1.178,0.179,1.749,0.179c3.959,0,7.509-2.765,8.354-6.793
				c3.516-16.922,9.122-33.314,16.461-48.922c1.442,0.256,2.901,0.444,4.412,0.444c14.114,0,25.6-11.486,25.6-25.6
				s-11.486-25.6-25.6-25.6s-25.6,11.486-25.6,25.6c0,6.391,2.44,12.177,6.323,16.666c-8.201,17.186-14.421,35.268-18.313,53.931
				C21.18,211.746,24.149,216.269,28.757,217.225z M59.733,128c4.71,0,8.533,3.831,8.533,8.533c0,4.702-3.823,8.533-8.533,8.533
				s-8.533-3.831-8.533-8.533C51.2,131.831,55.023,128,59.733,128z"/>
			<path d="M206.251,472.192c-91.571-20.975-160.691-99.635-170.624-192.64C44.766,275.644,51.2,266.556,51.2,256
				c0-14.114-11.486-25.6-25.6-25.6S0,241.886,0,256c0,11.665,7.885,21.419,18.577,24.499
				c10.359,100.54,84.958,185.677,183.859,208.333c0.64,0.145,1.28,0.213,1.911,0.213c3.891,0,7.407-2.671,8.311-6.63
				C213.709,477.824,210.842,473.242,206.251,472.192z M25.779,264.499c-0.043,0-0.077-0.017-0.111-0.017
				c-0.051,0.009-0.085,0.034-0.137,0.043c-4.676-0.043-8.465-3.84-8.465-8.525c0-4.702,3.823-8.533,8.533-8.533
				c4.71,0,8.533,3.831,8.533,8.533C34.133,260.642,30.396,264.397,25.779,264.499z"/>
			<path d="M483.226,294.827c-4.685-0.964-9.139,1.997-10.103,6.613c-4.881,23.467-13.534,45.474-25.156,65.493h-42.453
				c-4.719,0-8.533,3.823-8.533,8.533s3.814,8.533,8.533,8.533h31.522c-34.79,48.973-88.866,82.927-150.17,91.529
				c18.731-14.754,44.698-39.441,66.253-75.025c1.707,0.367,3.473,0.563,5.282,0.563c14.114,0,25.6-11.486,25.6-25.6
				c0-7.834-3.618-14.78-9.182-19.482c11.708-31.189,17.715-64.768,17.715-99.985c0-35.977-5.675-69.82-16.734-100.796
				c5.018-4.676,8.201-11.29,8.201-18.671c0-14.114-11.486-25.6-25.6-25.6c-1.084,0-2.125,0.188-3.174,0.324
				c-24.201-41.233-54.707-67.038-74.163-80.469c0.358-1.673,0.538-3.413,0.538-5.188C281.6,11.486,270.114,0,256,0
				c-11.614,0-21.333,7.825-24.457,18.441C173.457,24.354,119.91,51.098,80.137,94.353c-3.191,3.465-2.961,8.866,0.503,12.049
				c1.647,1.51,3.712,2.253,5.777,2.253c2.295,0,4.599-0.922,6.281-2.756c35.089-38.153,81.715-62.473,132.514-69.513
				C203.17,53.709,172.322,83.644,149.564,128h-42.897c-4.719,0-8.533,3.823-8.533,8.533s3.814,8.533,8.533,8.533h34.91
				c-12.271,28.732-20.685,62.763-21.777,102.4h-43c-4.719,0-8.533,3.823-8.533,8.533s3.814,8.533,8.533,8.533h42.982
				c1.007,39.97,8.721,73.975,20.198,102.4h-33.314c-4.719,0-8.533,3.823-8.533,8.533s3.814,8.533,8.533,8.533h40.917
				c24.917,50.825,60.672,81.596,83.345,97.229c-0.35,1.673-0.529,3.396-0.529,5.171c0,14.114,11.486,25.6,25.6,25.6
				c11.665,0,21.419-7.885,24.491-18.568c102.656-10.539,188.237-87.04,209.348-188.518
				C490.803,300.305,487.834,295.782,483.226,294.827z M358.4,384c-4.71,0-8.533-3.831-8.533-8.533s3.823-8.533,8.533-8.533
				s8.533,3.831,8.533,8.533S363.11,384,358.4,384z M358.4,128c4.71,0,8.533,3.831,8.533,8.533c0,4.702-3.823,8.533-8.533,8.533
				s-8.533-3.831-8.533-8.533C349.867,131.831,353.69,128,358.4,128z M256,17.067c4.71,0,8.533,3.831,8.533,8.533
				c0,4.702-3.823,8.533-8.533,8.533c-4.651,0-8.414-3.746-8.499-8.38c0-0.026,0.009-0.051,0.009-0.085
				c0-0.043-0.026-0.068-0.034-0.111C247.501,20.873,251.307,17.067,256,17.067z M264.533,256c0,4.702-3.823,8.533-8.533,8.533
				s-8.533-3.831-8.533-8.533c0-4.702,3.823-8.533,8.533-8.533S264.533,251.298,264.533,256z M163.046,376.644
				c0.051-0.401,0.239-0.759,0.239-1.178c0-2.978-1.621-5.478-3.934-6.997c-13.457-30.157-22.818-67.183-22.818-112.469
				c0-46.464,10.812-84.949,26.069-116.122c0.009-0.017,0.009-0.026,0.017-0.043c23.211-47.428,56.67-77.892,78.063-93.85
				c2.048,1.545,4.318,2.765,6.784,3.635V128h-59.733c-4.719,0-8.533,3.823-8.533,8.533s3.814,8.533,8.533,8.533h59.733v86.904
				c-7.236,2.577-12.919,8.269-15.488,15.497h-69.845c-4.719,0-8.533,3.823-8.533,8.533s3.814,8.533,8.533,8.533h69.845
				c2.569,7.228,8.252,12.919,15.488,15.488v86.912h-59.733c-4.719,0-8.533,3.823-8.533,8.533s3.814,8.533,8.533,8.533h59.733v78.37
				c-2.799,0.998-5.333,2.466-7.595,4.309C218.769,451.985,186.027,423.441,163.046,376.644z M256,494.933
				c-4.71,0-8.533-3.831-8.533-8.533s3.823-8.533,8.533-8.533c4.651,0,8.414,3.746,8.499,8.38c0,0.026-0.009,0.051-0.009,0.085
				c0,0.043,0.026,0.068,0.034,0.119C264.491,491.128,260.693,494.933,256,494.933z M271.309,466.005
				c-2.048-1.536-4.318-2.756-6.776-3.635V280.03c9.907-3.541,17.067-12.919,17.067-24.03s-7.159-20.489-17.067-24.03V49.63
				c2.79-0.998,5.325-2.458,7.578-4.301c17.971,12.527,45.619,36.19,67.806,73.583c-2.458,2.569-4.326,5.666-5.538,9.088h-48.512
				c-4.719,0-8.533,3.823-8.533,8.533s3.814,8.533,8.533,8.533h48.512c3.533,9.916,12.911,17.067,24.021,17.067
				c0.58,0,1.126-0.137,1.69-0.171c9.293,26.394,14.396,55.074,15.198,85.504H307.2c-4.719,0-8.533,3.823-8.533,8.533
				s3.814,8.533,8.533,8.533h68.079c-0.879,30.012-6.391,58.667-16.401,85.385c-0.162-0.009-0.307-0.051-0.478-0.051
				c-11.11,0-20.489,7.151-24.021,17.067h-48.512c-4.719,0-8.533,3.823-8.533,8.533s3.814,8.533,8.533,8.533h48.512
				c0.981,2.765,2.423,5.291,4.25,7.526C316.356,428.339,288.99,452.804,271.309,466.005z"/>
		</g>
	</g>
</g>
<g>
</g>
<g>
</g>
<g>
</g>
<g>
</g>
<g>
</g>
<g>
</g>
<g>
</g>
<g>
</g>
<g>
</g>
<g>
</g>
<g>
</g>
<g>
</g>
<g>
</g>
<g>
</g>
<g>
</g>
</svg>
